<svg viewBox="0 0 109 25" xmlns="http://www.w3.org/2000/svg">
    <path
        d="M0 13.12C0 11.916 0.224 10.859 0.672 9.94896C1.134 9.03896 1.757 8.33896 2.541 7.84896C3.325 7.35896 4.2 7.11396 5.166 7.11396C5.992 7.11396 6.713 7.28196 7.329 7.61796C7.959 7.95396 8.442 8.39496 8.778 8.94096V7.28196H12.369V19H8.778V17.341C8.428 17.887 7.938 18.328 7.308 18.664C6.692 19 5.971 19.168 5.145 19.168C4.193 19.168 3.325 18.923 2.541 18.433C1.757 17.929 1.134 17.222 0.672 16.312C0.224 15.388 0 14.324 0 13.12ZM8.778 13.141C8.778 12.245 8.526 11.538 8.022 11.02C7.532 10.502 6.93 10.243 6.216 10.243C5.502 10.243 4.893 10.502 4.389 11.02C3.899 11.524 3.654 12.224 3.654 13.12C3.654 14.016 3.899 14.73 4.389 15.262C4.893 15.78 5.502 16.039 6.216 16.039C6.93 16.039 7.532 15.78 8.022 15.262C8.526 14.744 8.778 14.037 8.778 13.141Z" />
    <path
        d="M18.5579 8.94096C18.9079 8.39496 19.3909 7.95396 20.0069 7.61796C20.6229 7.28196 21.3439 7.11396 22.1699 7.11396C23.1359 7.11396 24.0109 7.35896 24.7949 7.84896C25.5789 8.33896 26.1949 9.03896 26.6429 9.94896C27.1049 10.859 27.3359 11.916 27.3359 13.12C27.3359 14.324 27.1049 15.388 26.6429 16.312C26.1949 17.222 25.5789 17.929 24.7949 18.433C24.0109 18.923 23.1359 19.168 22.1699 19.168C21.3579 19.168 20.6369 19 20.0069 18.664C19.3909 18.328 18.9079 17.894 18.5579 17.362V24.586H14.9669V7.28196H18.5579V8.94096ZM23.6819 13.12C23.6819 12.224 23.4299 11.524 22.9259 11.02C22.4359 10.502 21.8269 10.243 21.0989 10.243C20.3849 10.243 19.7759 10.502 19.2719 11.02C18.7819 11.538 18.5369 12.245 18.5369 13.141C18.5369 14.037 18.7819 14.744 19.2719 15.262C19.7759 15.78 20.3849 16.039 21.0989 16.039C21.8129 16.039 22.4219 15.78 22.9259 15.262C23.4299 14.73 23.6819 14.016 23.6819 13.12Z" />
    <path
        d="M40.2659 12.952C40.2659 13.288 40.2449 13.638 40.2029 14.002H32.0759C32.1319 14.73 32.3629 15.29 32.7689 15.682C33.1889 16.06 33.6999 16.249 34.3019 16.249C35.1979 16.249 35.8209 15.871 36.1709 15.115H39.9929C39.7969 15.885 39.4399 16.578 38.9219 17.194C38.4179 17.81 37.7809 18.293 37.0109 18.643C36.2409 18.993 35.3799 19.168 34.4279 19.168C33.2799 19.168 32.2579 18.923 31.3619 18.433C30.4659 17.943 29.7659 17.243 29.2619 16.333C28.7579 15.423 28.5059 14.359 28.5059 13.141C28.5059 11.923 28.7509 10.859 29.2409 9.94896C29.7449 9.03896 30.4449 8.33896 31.3409 7.84896C32.2369 7.35896 33.2659 7.11396 34.4279 7.11396C35.5619 7.11396 36.5699 7.35196 37.4519 7.82796C38.3339 8.30396 39.0199 8.98296 39.5099 9.86496C40.0139 10.747 40.2659 11.776 40.2659 12.952ZM36.5909 12.007C36.5909 11.391 36.3809 10.901 35.9609 10.537C35.5409 10.173 35.0159 9.99096 34.3859 9.99096C33.7839 9.99096 33.2729 10.166 32.8529 10.516C32.4469 10.866 32.1949 11.363 32.0969 12.007H36.5909Z" />
    <path
        d="M49.0903 19L46.8433 15.745L44.9533 19H41.0683L44.9323 13.015L40.9633 7.28196H44.9953L47.2423 10.516L49.1323 7.28196H53.0173L49.0903 13.183L53.1223 19H49.0903Z" />
    <path
        d="M65.4872 15.955V19H63.6602C62.3582 19 61.3432 18.685 60.6152 18.055C59.8872 17.411 59.5232 16.368 59.5232 14.926V10.264H58.0952V7.28196H59.5232V4.42596H63.1142V7.28196H65.4662V10.264H63.1142V14.968C63.1142 15.318 63.1982 15.57 63.3662 15.724C63.5342 15.878 63.8142 15.955 64.2062 15.955H65.4872Z" />
    <path
        d="M78.5334 12.952C78.5334 13.288 78.5124 13.638 78.4704 14.002H70.3434C70.3994 14.73 70.6304 15.29 71.0364 15.682C71.4564 16.06 71.9674 16.249 72.5694 16.249C73.4654 16.249 74.0884 15.871 74.4384 15.115H78.2604C78.0644 15.885 77.7074 16.578 77.1894 17.194C76.6854 17.81 76.0484 18.293 75.2784 18.643C74.5084 18.993 73.6474 19.168 72.6954 19.168C71.5474 19.168 70.5254 18.923 69.6294 18.433C68.7334 17.943 68.0334 17.243 67.5294 16.333C67.0254 15.423 66.7734 14.359 66.7734 13.141C66.7734 11.923 67.0184 10.859 67.5084 9.94896C68.0124 9.03896 68.7124 8.33896 69.6084 7.84896C70.5044 7.35896 71.5334 7.11396 72.6954 7.11396C73.8294 7.11396 74.8374 7.35196 75.7194 7.82796C76.6014 8.30396 77.2874 8.98296 77.7774 9.86496C78.2814 10.747 78.5334 11.776 78.5334 12.952ZM74.8584 12.007C74.8584 11.391 74.6484 10.901 74.2284 10.537C73.8084 10.173 73.2834 9.99096 72.6534 9.99096C72.0514 9.99096 71.5404 10.166 71.1204 10.516C70.7144 10.866 70.4624 11.363 70.3644 12.007H74.8584Z" />
    <path
        d="M79.7139 13.141C79.7139 11.923 79.9589 10.859 80.4489 9.94896C80.9529 9.03896 81.6459 8.33896 82.5279 7.84896C83.4239 7.35896 84.4459 7.11396 85.5939 7.11396C87.0639 7.11396 88.2889 7.49896 89.2689 8.26896C90.2629 9.03896 90.9139 10.124 91.2219 11.524H87.3999C87.0779 10.628 86.4549 10.18 85.5309 10.18C84.8729 10.18 84.3479 10.439 83.9559 10.957C83.5639 11.461 83.3679 12.189 83.3679 13.141C83.3679 14.093 83.5639 14.828 83.9559 15.346C84.3479 15.85 84.8729 16.102 85.5309 16.102C86.4549 16.102 87.0779 15.654 87.3999 14.758H91.2219C90.9139 16.13 90.2629 17.208 89.2689 17.992C88.2749 18.776 87.0499 19.168 85.5939 19.168C84.4459 19.168 83.4239 18.923 82.5279 18.433C81.6459 17.943 80.9529 17.243 80.4489 16.333C79.9589 15.423 79.7139 14.359 79.7139 13.141Z" />
    <path
        d="M100.346 7.15596C101.69 7.15596 102.768 7.60396 103.58 8.49996C104.392 9.38196 104.798 10.6 104.798 12.154V19H101.228V12.637C101.228 11.853 101.025 11.244 100.619 10.81C100.213 10.376 99.6667 10.159 98.9807 10.159C98.2947 10.159 97.7487 10.376 97.3427 10.81C96.9367 11.244 96.7337 11.853 96.7337 12.637V19H93.1427V3.45996H96.7337V8.85696C97.0977 8.33896 97.5947 7.92596 98.2247 7.61796C98.8547 7.30996 99.5617 7.15596 100.346 7.15596Z" />
    <g clip-path="url(#clip0_125_39747)">
        <path
            d="M105.702 0C104.323 0 103.202 1.12139 103.202 2.5C103.202 3.87861 104.323 5 105.702 5C107.08 5 108.202 3.87861 108.202 2.5C108.202 1.12139 107.08 0 105.702 0ZM105.702 4.61538C104.535 4.61538 103.586 3.66635 103.586 2.5C103.586 1.33365 104.535 0.384615 105.702 0.384615C106.868 0.384615 107.817 1.33365 107.817 2.5C107.817 3.66635 106.868 4.61538 105.702 4.61538Z" />
        <path
            d="M106.663 2.11539C106.663 1.69135 106.318 1.34616 105.894 1.34616H105.125C105.018 1.34616 104.932 1.43222 104.932 1.53847V3.46155C104.932 3.5678 105.018 3.65385 105.125 3.65385C105.231 3.65385 105.317 3.5678 105.317 3.46155V2.88462H105.834L106.313 3.57164C106.351 3.62525 106.41 3.65385 106.471 3.65385C106.509 3.65385 106.548 3.64255 106.581 3.61924C106.668 3.55842 106.689 3.43847 106.629 3.35145L106.244 2.80001C106.492 2.67236 106.663 2.41347 106.663 2.11539ZM105.935 2.49784C105.926 2.49784 105.917 2.49808 105.908 2.49929C105.903 2.49929 105.899 2.50001 105.894 2.50001H105.317V1.73078H105.894C106.106 1.73078 106.279 1.90337 106.279 2.11539C106.279 2.31371 106.128 2.47741 105.935 2.49784H105.935Z" />
    </g>
    <defs>
        <clipPath id="clip0_125_39747">
            <rect width="5" height="5" transform="translate(103.202)" />
        </clipPath>
    </defs>
</svg>