<svg viewBox="0 0 228 103" xmlns="http://www.w3.org/2000/svg">
    <path
        d="M97.0645 15.7654H111.752C116.764 15.7654 120.424 16.928 122.723 19.2533C125.024 21.5785 126.173 25.1553 126.173 29.9811V32.4529C126.173 35.6308 125.655 38.2227 124.625 40.2213C123.592 42.2222 122.015 43.6635 119.892 44.5475V44.7228C124.728 46.3707 127.148 50.668 127.148 57.6125V62.9092C127.148 67.6774 125.893 71.3118 123.387 73.8124C120.879 76.3154 117.207 77.5644 112.371 77.5644H97.0645V15.7654ZM110.601 40.9251C112.549 40.9251 114.008 40.4255 114.98 39.4238C115.953 38.4245 116.442 36.7478 116.442 34.3914V30.9491C116.442 28.7128 116.045 27.0938 115.248 26.0945C114.451 25.0952 113.197 24.5932 111.487 24.5932H106.798V40.9251H110.601ZM112.371 68.7343C114.08 68.7343 115.349 68.2779 116.175 67.3651C117 66.4523 117.414 64.8789 117.414 62.6426V57.257C117.414 54.4321 116.928 52.4768 115.953 51.3863C114.98 50.2981 113.372 49.7528 111.131 49.7528H106.795V68.7343H112.368H112.371Z" />
    <path
        d="M136.173 74.4297C133.696 71.7514 132.456 67.9128 132.456 62.9092V15.7654H142.189V63.6154C142.189 65.7341 142.618 67.2642 143.472 68.2059C144.327 69.1475 145.552 69.6183 147.143 69.6183C148.735 69.6183 149.96 69.1475 150.815 68.2059C151.669 67.2642 152.098 65.7341 152.098 63.6154V15.7654H161.477V62.9092C161.477 67.9128 160.24 71.7538 157.763 74.4297C155.285 77.1081 151.686 78.4461 146.968 78.4461C142.249 78.4461 138.65 77.1081 136.173 74.4297Z" />
    <path
        d="M166.434 68.9121L184.482 24.5932H167.318V15.7654H194.923V24.4178L176.873 68.7367H194.923V77.5645H166.434V68.9121Z" />
    <path
        d="M198.905 68.9121L216.954 24.5932H199.789V15.7654H227.395V24.4178L209.344 68.7367H227.395V77.5645H198.905V68.9121Z" />
    <path
        d="M49.6409 0L0 32.2963L27.6155 71.0351L19.0017 80.1752L22.4227 95.1571L44.2941 70.7637L17.3623 32.1594L49.6409 0Z" />
    <path
        d="M77.0953 70.675L65.1521 78.4554L27.4736 103L59.8101 70.8311L39.7707 42.2412L32.7892 32.2773L42.2263 21.7176L54.6799 7.79019L58.12 22.8562L49.5135 31.9482L69.991 60.7014L77.0953 70.675Z" />
</svg>