<svg viewBox="0 0 131 64" xmlns="http://www.w3.org/2000/svg">
    <path
        d="M0.0644531 0.765411H14.7521C19.7643 0.765411 23.4236 1.92803 25.7227 4.25327C28.0242 6.57851 29.1725 10.1553 29.1725 14.9811V17.4529C29.1725 20.6308 28.6549 23.2227 27.6246 25.2213C26.5918 27.2222 25.0149 28.6635 22.8916 29.5475V29.7228C27.7281 31.3707 30.1475 35.668 30.1475 42.6125V47.9092C30.1475 52.6774 28.8933 56.3118 26.3872 58.8124C23.8786 61.3154 20.2073 62.5644 15.3708 62.5644H0.0644531V0.765411ZM13.6014 25.9251C15.549 25.9251 17.0079 25.4255 17.9805 24.4238C18.953 23.4245 19.4418 21.7478 19.4418 19.3914V15.9491C19.4418 13.7128 19.0445 12.0938 18.2477 11.0945C17.4508 10.0952 16.1966 9.59316 14.4873 9.59316H9.79764V25.9251H13.6014ZM15.3708 53.7343C17.0801 53.7343 18.3488 53.2779 19.1745 52.3651C20.0003 51.4523 20.4143 49.8789 20.4143 47.6426V42.257C20.4143 39.4321 19.9281 37.4768 18.9531 36.3863C17.9805 35.2981 16.3723 34.7528 14.131 34.7528H9.79523V53.7343H15.3684H15.3708Z" />
    <path
        d="M39.1729 59.4297C36.6956 56.7514 35.4558 52.9128 35.4558 47.9092V0.765442H45.189V48.6154C45.189 50.7341 45.6175 52.2642 46.4722 53.2059C47.3268 54.1475 48.5522 54.6183 50.1435 54.6183C51.7348 54.6183 52.9601 54.1475 53.8148 53.2059C54.6694 52.2642 55.0979 50.7341 55.0979 48.6154V0.765442H64.4772V47.9092C64.4772 52.9128 63.2398 56.7538 60.7626 59.4297C58.2853 62.1081 54.6863 63.4461 49.9677 63.4461C45.2492 63.4461 41.6501 62.1081 39.1729 59.4297Z" />
    <path
        d="M69.4341 53.9121L87.4825 9.59319H70.3176V0.765442H97.9234V9.41784L79.8726 53.7367H97.9234V62.5645H69.4341V53.9121Z" />
    <path
        d="M101.905 53.9121L119.954 9.59319H102.789V0.765442H130.395V9.41784L112.344 53.7367H130.395V62.5645H101.905V53.9121Z" />
</svg>