<svg  viewBox="0 0 34 42" fill="none" xmlns="http://www.w3.org/2000/svg">
<path d="M28.2522 22.4013C28.2022 17.1913 32.5122 14.6613 32.7122 14.5413C30.2722 10.9813 26.4822 10.4913 25.1522 10.4513C21.9722 10.1213 18.8922 12.3513 17.2722 12.3513C15.6522 12.3513 13.1222 10.4813 10.4422 10.5313C6.98225 10.5913 3.75225 12.5913 1.97225 15.6913C-1.68775 22.0313 1.04223 31.3413 4.55223 36.4713C6.31223 38.9813 8.36225 41.7813 11.0423 41.6813C13.6623 41.5713 14.6422 40.0113 17.8122 40.0113C20.9822 40.0113 21.8722 41.6813 24.6122 41.6213C27.4322 41.5713 29.2023 39.1013 30.8923 36.5713C32.9223 33.6913 33.7322 30.8613 33.7722 30.7213C33.7022 30.7013 28.3022 28.6413 28.2422 22.3913" fill="white"/>
<path d="M23.072 7.09047C24.482 5.32047 25.452 2.92047 25.182 0.480469C23.142 0.570469 20.582 1.89047 19.112 3.62047C17.812 5.14047 16.642 7.64047 16.942 9.98047C19.242 10.1505 21.592 8.82047 23.072 7.08047" fill="white"/>
</svg>
